<svg width="80" height="80" viewBox="0 0 80 80" fill="none" xmlns="http://www.w3.org/2000/svg">
<path d="M69.4016 43.5435C69.2549 43.25 68.8881 43.1033 68.5947 43.03C66.9075 43.03 52.3828 42.4431 52.3828 25.571C52.3828 25.0575 51.9427 24.6174 51.4292 24.6174C50.9157 24.6174 50.4755 25.0575 50.4755 25.571C50.4755 42.4431 35.9509 43.03 34.337 43.03C34.117 43.03 33.8969 43.1033 33.7502 43.25C33.6035 43.3234 33.5301 43.4701 33.4567 43.5435C33.31 43.8369 33.31 44.2037 33.4567 44.4971C33.6035 44.7905 33.9702 45.0106 34.337 45.0106C34.337 45.0106 34.337 45.0106 34.4104 45.0106C36.0976 45.0106 50.5489 45.5975 50.5489 62.4695C50.5489 62.983 50.989 63.4232 51.5025 63.4232C52.016 63.4232 52.4562 62.983 52.4562 62.4695C52.4562 45.6708 66.9075 45.0106 68.5947 45.0106C68.9615 45.0106 69.2549 44.7905 69.475 44.4971C69.6217 44.2037 69.6217 43.8369 69.4016 43.5435ZM51.4292 55.2806C49.3018 48.3117 44.0935 45.304 39.9855 43.9836C44.0935 42.6632 49.3018 39.6556 51.4292 32.6866C53.5565 39.6556 58.7649 42.6632 62.8729 43.9836C58.7649 45.304 53.5565 48.3117 51.4292 55.2806Z" fill="black"/>
<path d="M39.3253 24.4707C39.8388 24.4707 40.2789 24.0305 40.2789 23.4437C40.2789 22.9302 39.8388 22.49 39.3253 22.49C38.445 22.49 30.5224 22.1966 30.5224 12.9536C30.5224 12.4401 30.0823 12 29.5688 12C29.0553 12 28.6152 12.4401 28.6152 12.9536C28.6152 22.1966 20.6926 22.49 19.8123 22.49C19.739 22.49 19.739 22.49 19.739 22.49C19.2255 22.5634 18.8587 22.9302 18.8587 23.4437C18.8587 23.9572 19.2988 24.3973 19.8123 24.3973C20.766 24.3973 28.6152 24.6907 28.6152 33.9337C28.6152 34.4472 29.0553 34.8873 29.5688 34.8873C30.0089 34.9607 30.4491 34.5206 30.4491 34.0071C30.4491 24.7641 38.3716 24.4707 39.2519 24.4707H39.3253ZM29.4954 28.652C28.3217 25.8645 26.1944 24.324 24.2138 23.4437C26.3411 22.5634 28.3217 20.8762 29.4954 18.2353C30.6692 21.0229 32.7965 22.5634 34.7771 23.4437C32.6498 24.324 30.6692 26.0112 29.4954 28.652Z" fill="black"/>
<path d="M30.8893 55.574C30.009 55.574 22.0864 55.2806 22.0864 46.0376C22.0864 45.5241 21.6463 45.084 21.1328 45.084C20.6193 45.084 20.1791 45.5241 20.1791 46.0376C20.1791 55.2806 12.2566 55.574 11.3763 55.574C11.303 55.574 11.303 55.574 11.303 55.574C10.7895 55.6474 10.4227 56.0141 10.4227 56.5276C10.4227 57.0411 10.8628 57.4813 11.3763 57.4813C12.3299 57.4813 20.1791 57.7747 20.1791 67.0177C20.1791 67.5312 20.6193 67.9713 21.1328 67.9713C21.5729 68.118 22.0131 67.6779 22.0131 67.091C22.0131 57.8481 29.9356 57.5546 30.8159 57.5546H30.8893C31.4027 57.5546 31.8429 57.1145 31.8429 56.5276C31.8429 56.0141 31.4027 55.574 30.8893 55.574ZM21.0594 61.8093C19.8124 59.0218 17.7584 57.4813 15.7777 56.601C17.9051 55.7207 19.8857 54.0335 21.0594 51.3927C22.2331 54.1802 24.3605 55.7207 26.3411 56.601C24.2138 57.4813 22.2331 59.1685 21.0594 61.8093Z" fill="black"/>
</svg>
