<svg width="80" height="80" viewBox="0 0 80 80" fill="none" xmlns="http://www.w3.org/2000/svg">
<path d="M69.3333 56H67.2453C65.781 56.0013 64.337 56.3422 63.0267 56.996C61.1202 57.9437 58.8798 57.9437 56.9733 56.996C56.2128 56.6228 55.4057 56.3537 54.5733 56.196L57.172 36H60C60.7363 36 61.3333 35.403 61.3333 34.6667V29.3333C61.3333 28.597 60.7363 28 60 28H54.6667V24C54.6667 23.6463 54.526 23.3073 54.276 23.0573L48 16.7813V12.64L50.0213 11.024L53.4733 17.9293L55.86 16.7373L52.1507 9.32L53.8 8H58.6667C59.403 8 60 7.403 60 6.66667V1.33333C60 0.597 59.403 0 58.6667 0H45.3333C38.7093 0.008 33.3413 5.376 33.3333 12C33.3333 12.7363 33.9303 13.3333 34.6667 13.3333H37.3333V16.7813L33.724 20.3907C33.474 20.6407 33.3333 20.9797 33.3333 21.3333V28H30.6667V17.3333C30.6647 17.1682 30.6317 17.005 30.5693 16.852C30.545 16.8002 30.5173 16.7498 30.4867 16.7013C30.4547 16.6315 30.4172 16.5642 30.3747 16.5L25.3333 10.2V1.33333C25.3333 0.597 24.7363 0 24 0H16C15.2637 0 14.6667 0.597 14.6667 1.33333V10.2L9.62534 16.5C9.58284 16.5642 9.54534 16.6315 9.51334 16.7013C9.48267 16.7498 9.455 16.8002 9.43067 16.852C9.36834 17.005 9.33534 17.1682 9.33334 17.3333V28H4.00001C3.26367 28 2.66667 28.597 2.66667 29.3333V34.6667C2.66667 35.403 3.26367 36 4.00001 36H6.828L12.0107 76.1707C12.0965 76.8357 12.6628 77.3335 13.3333 77.3333H44.72C46.2322 79.0283 48.3952 79.9983 50.6667 80H52.7547C54.219 79.9987 55.663 79.6578 56.9733 79.004C58.8798 78.0563 61.1202 78.0563 63.0267 79.004C64.337 79.6578 65.781 79.9987 67.2453 80H69.3333C73.7498 79.9957 77.329 76.4165 77.3333 72V64C77.329 59.5835 73.7498 56.0043 69.3333 56ZM54.6667 2.66667H57.3333V5.33333H54.6667V2.66667ZM58.6667 30.6667V33.3333H40V30.6667H58.6667ZM36.0947 10.6667C36.7635 6.0775 40.6957 2.6725 45.3333 2.66667H52V6.02667L46.1987 10.6667H36.0947ZM45.3333 13.3333V16H40V13.3333H45.3333ZM36 21.8853L39.2187 18.6667H46.1147L52 24.552V28H36V21.8853ZM34.6667 30.6667H37.3333V40C37.3305 40.5078 37.6165 40.973 38.0707 41.2L46.0707 45.2C46.4608 45.3923 46.7565 45.7342 46.8907 46.148C47.0288 46.5922 46.9808 47.0733 46.7573 47.4813C46.3737 48.2512 45.4387 48.5642 44.6688 48.1803C44.6677 48.1798 44.6665 48.1792 44.6653 48.1787L39.252 45.472C38.5903 45.1487 37.792 45.423 37.4687 46.0847C37.3802 46.266 37.3338 46.465 37.3333 46.6667V60C37.3333 61.4728 36.1395 62.6667 34.6667 62.6667V50.6667H32V62.6667H29.3333V50.6667H26.6667V62.6667H24V50.6667H21.3333V62.6667C19.8605 62.6667 18.6667 61.4728 18.6667 60V30.6667H34.6667ZM17.3333 2.66667H22.6667V9.33333H17.3333V2.66667ZM16.64 12H23.36L26.56 16H13.44L16.64 12ZM12 18.6667H28V28H12V18.6667ZM5.33334 33.3333V30.6667H16V33.3333H5.33334ZM42.6667 64V72C42.669 72.909 42.8268 73.8108 43.1333 74.6667H14.5053L9.516 36H16V60C16 62.9455 18.3878 65.3333 21.3333 65.3333H34.6667C37.6122 65.3333 40 62.9455 40 60V48.824L43.4827 50.5653C45.5872 51.604 48.1352 50.74 49.1738 48.6355C49.1782 48.6268 49.1823 48.618 49.1867 48.6093C49.7032 47.5855 49.791 46.398 49.4307 45.3093C49.0753 44.2202 48.297 43.3198 47.2707 42.8107L40 39.176V36H54.484L51.9027 56H50.6667C46.2502 56.0043 42.671 59.5835 42.6667 64ZM74.6667 72C74.6667 74.9455 72.2788 77.3333 69.3333 77.3333H67.2453C66.1952 77.3318 65.1597 77.0873 64.22 76.6187C61.5617 75.2978 58.4383 75.2978 55.78 76.6187C54.8403 77.0873 53.8048 77.3318 52.7547 77.3333H50.6667C47.7212 77.3333 45.3333 74.9455 45.3333 72V69.9467C46.7955 71.2678 48.696 71.9995 50.6667 72H52.7547C54.219 71.9987 55.663 71.6578 56.9733 71.004C58.8798 70.0563 61.1202 70.0563 63.0267 71.004C64.337 71.6578 65.781 71.9987 67.2453 72H69.3333C71.304 71.9995 73.2045 71.2678 74.6667 69.9467V72ZM69.3333 69.3333H67.2453C66.1952 69.3318 65.1597 69.0873 64.22 68.6187C61.5617 67.2978 58.4383 67.2978 55.78 68.6187C54.8403 69.0873 53.8048 69.3318 52.7547 69.3333H50.6667C47.7212 69.3333 45.3333 66.9455 45.3333 64C45.3333 61.0545 47.7212 58.6667 50.6667 58.6667H52.7547C53.8048 58.6682 54.8403 58.9127 55.78 59.3813C58.4385 60.7013 61.5615 60.7013 64.22 59.3813C65.1597 58.9127 66.1952 58.6682 67.2453 58.6667H69.3333C72.2788 58.6667 74.6667 61.0545 74.6667 64C74.6667 66.9455 72.2788 69.3333 69.3333 69.3333Z" fill="black"/>
<path d="M70.6667 61.3333H68V64H70.6667V61.3333Z" fill="black"/>
<path d="M57.3333 61.3333H54.6667V64H57.3333V61.3333Z" fill="black"/>
<path d="M52 62.6667H49.3333V65.3333H52V62.6667Z" fill="black"/>
<path d="M65.3333 62.6667H62.6667V65.3333H65.3333V62.6667Z" fill="black"/>
</svg>
