<svg width="80" height="80" viewBox="0 0 80 80" fill="none" xmlns="http://www.w3.org/2000/svg">
<g clip-path="url(#clip0)">
<path d="M52.0089 13.3834C45.1163 13.3749 38.4671 15.9322 33.3563 20.557C27.465 13.0093 16.8161 11.1474 8.71413 16.2497C0.611522 21.3513 -2.31205 31.7588 1.9484 40.3337C6.20886 48.908 16.2696 52.864 25.229 49.4883C25.607 50.7289 26.0741 51.9402 26.6257 53.1138C21.1767 56.7009 18.7573 63.4589 20.6908 69.6892C22.6242 75.9189 28.4447 80.1201 34.9665 79.9926C41.4889 79.8651 47.1402 75.4401 48.829 69.1388C59.139 70.3267 69.2589 65.7085 75.1178 57.142C80.976 48.5756 81.6096 37.4694 76.763 28.292C71.9164 19.1147 62.3872 13.3756 52.0089 13.3834V13.3834ZM2.7128 32.036C2.70174 25.1596 7.09621 19.0497 13.6186 16.8723C20.1411 14.6949 27.3251 16.9399 31.447 22.4436C26.6719 27.5855 24.0222 34.3454 24.03 41.3623C24.034 43.2157 24.2213 45.0632 24.5882 46.8796C19.6688 48.8514 14.0903 48.2496 9.70427 45.2734C5.31826 42.2977 2.69849 37.3366 2.7128 32.036V32.036ZM34.6887 77.3351C28.0661 77.3351 22.6977 71.9668 22.6977 65.3442C22.6977 58.7222 28.0661 53.3532 34.6887 53.3532C41.3113 53.3532 46.6796 58.7222 46.6796 65.3442C46.6725 71.9635 41.308 77.328 34.6887 77.3351ZM52.0089 66.6765C51.0988 66.67 50.19 66.6147 49.2857 66.51C49.3163 66.1248 49.3443 65.7377 49.3443 65.3442C49.3443 60.4306 46.8806 55.8435 42.7848 53.1288C38.6883 50.414 33.504 49.9333 28.9781 51.8478C28.3159 50.4101 27.7928 48.9125 27.4168 47.3753C26.938 45.4067 26.6954 43.3881 26.6947 41.3623C26.6947 27.3819 38.0286 16.048 52.0089 16.048C65.9899 16.048 77.3232 27.3819 77.3232 41.3623C77.3232 55.3432 65.9899 66.6765 52.0089 66.6765V66.6765Z" fill="black"/>
<path d="M12.0391 60.0149C12.0391 59.2791 11.4425 58.6825 10.7068 58.6825C9.97099 58.6825 9.37443 59.2791 9.37443 60.0149C9.37443 62.2228 7.58477 64.0118 5.37745 64.0118C4.64168 64.0118 4.04512 64.6084 4.04512 65.3442C4.04512 66.0799 4.64168 66.6765 5.37745 66.6765C7.58477 66.6765 9.37443 68.4662 9.37443 70.6735C9.37443 71.4092 9.97099 72.0058 10.7068 72.0058C11.4425 72.0058 12.0391 71.4092 12.0391 70.6735C12.0391 68.4662 13.8288 66.6765 16.0361 66.6765C16.7718 66.6765 17.3684 66.0799 17.3684 65.3442C17.3684 64.6084 16.7718 64.0118 16.0361 64.0118C13.8288 64.0118 12.0391 62.2228 12.0391 60.0149ZM10.7068 66.7181C10.319 66.1951 9.85584 65.7325 9.33345 65.3442C9.85584 64.9564 10.319 64.4932 10.7068 63.9708C11.0951 64.4932 11.5577 64.9564 12.0807 65.3442C11.5577 65.7325 11.0951 66.1951 10.7068 66.7181V66.7181Z" fill="black"/>
<path d="M65.3322 12.051C65.3322 12.7868 65.9288 13.3834 66.6645 13.3834C67.4003 13.3834 67.9969 12.7868 67.9969 12.051C67.9969 9.84372 69.7865 8.05406 71.9939 8.05406C72.7296 8.05406 73.3262 7.4575 73.3262 6.72173C73.3262 5.98596 72.7296 5.3894 71.9939 5.3894C69.7865 5.3894 67.9969 3.60039 67.9969 1.39242C67.9969 0.656644 67.4003 0.0600891 66.6645 0.0600891C65.9288 0.0600891 65.3322 0.656644 65.3322 1.39242C65.3322 3.60039 63.5426 5.3894 61.3352 5.3894C60.5995 5.3894 60.0029 5.98596 60.0029 6.72173C60.0029 7.4575 60.5995 8.05406 61.3352 8.05406C63.5426 8.05406 65.3322 9.84372 65.3322 12.051ZM66.6645 5.34842C67.0529 5.87081 67.5155 6.334 68.0385 6.72173C67.5155 7.11011 67.0529 7.57265 66.6645 8.09569C66.2768 7.57265 65.8136 7.11011 65.2912 6.72173C65.8136 6.334 66.2768 5.87081 66.6645 5.34842Z" fill="black"/>
<path d="M69.3292 41.3623C67.1219 41.3623 65.3322 39.5733 65.3322 37.3653C65.3322 36.6295 64.7356 36.033 63.9999 36.033C63.2641 36.033 62.6675 36.6295 62.6675 37.3653C62.6675 39.5733 60.8779 41.3623 58.6706 41.3623C57.9348 41.3623 57.3382 41.9588 57.3382 42.6946C57.3382 43.4304 57.9348 44.0269 58.6706 44.0269C60.8779 44.0269 62.6675 45.8166 62.6675 48.0239C62.6675 48.7597 63.2641 49.3562 63.9999 49.3562C64.7356 49.3562 65.3322 48.7597 65.3322 48.0239C65.3322 45.8166 67.1219 44.0269 69.3292 44.0269C70.0649 44.0269 70.6615 43.4304 70.6615 42.6946C70.6615 41.9588 70.0649 41.3623 69.3292 41.3623ZM63.9999 44.0686C63.6121 43.5455 63.1489 43.083 62.6266 42.6946C63.1489 42.3069 63.6121 41.8437 63.9999 41.3213C64.3882 41.8437 64.8508 42.3069 65.3738 42.6946C64.8508 43.083 64.3882 43.5455 63.9999 44.0686Z" fill="black"/>
<path d="M54.6736 30.7036C54.6736 29.9679 54.0771 29.3713 53.3413 29.3713C51.134 29.3713 49.3443 27.5823 49.3443 25.3743C49.3443 24.6385 48.7478 24.042 48.012 24.042C47.2762 24.042 46.6796 24.6385 46.6796 25.3743C46.6796 27.5823 44.89 29.3713 42.6827 29.3713C41.9469 29.3713 41.3503 29.9679 41.3503 30.7036C41.3503 31.4394 41.9469 32.036 42.6827 32.036C44.89 32.036 46.6796 33.8256 46.6796 36.0329C46.6796 36.7687 47.2762 37.3653 48.012 37.3653C48.7478 37.3653 49.3443 36.7687 49.3443 36.0329C49.3443 33.8256 51.134 32.036 53.3413 32.036C54.0771 32.036 54.6736 31.4394 54.6736 30.7036ZM48.012 32.0776C47.6242 31.5545 47.1611 31.092 46.6387 30.7036C47.1611 30.3159 47.6242 29.8527 48.012 29.3303C48.4004 29.8527 48.8629 30.3159 49.3859 30.7036C48.8629 31.092 48.4004 31.5545 48.012 32.0776Z" fill="black"/>
<path d="M16.0361 54.6855H18.7007V57.3502H16.0361V54.6855Z" fill="black"/>
<path d="M2.71278 73.3381H5.37744V76.0028H2.71278V73.3381Z" fill="black"/>
<path d="M78.6555 69.3412C78.6555 67.1338 76.8658 65.3442 74.6585 65.3442C72.4512 65.3442 70.6615 67.1338 70.6615 69.3412C70.6615 71.5491 72.4512 73.3381 74.6585 73.3381C76.8658 73.3381 78.6555 71.5491 78.6555 69.3412ZM73.3262 69.3412C73.3262 68.6054 73.9227 68.0088 74.6585 68.0088C75.3943 68.0088 75.9908 68.6054 75.9908 69.3412C75.9908 70.0769 75.3943 70.6735 74.6585 70.6735C73.9227 70.6735 73.3262 70.0769 73.3262 69.3412Z" fill="black"/>
<path d="M40.018 9.38638C40.018 6.44329 37.6318 4.05707 34.6887 4.05707C31.7456 4.05707 29.3594 6.44329 29.3594 9.38638C29.3594 12.3301 31.7456 14.7157 34.6887 14.7157C37.6318 14.7157 40.018 12.3301 40.018 9.38638ZM32.024 9.38638C32.024 7.91483 33.2172 6.72172 34.6887 6.72172C36.1602 6.72172 37.3533 7.91483 37.3533 9.38638C37.3533 10.8586 36.1602 12.051 34.6887 12.051C33.2172 12.051 32.024 10.8586 32.024 9.38638Z" fill="black"/>
<path d="M48.012 6.72173H50.6766V9.38638H48.012V6.72173Z" fill="black"/>
<path d="M53.3413 56.0179H56.0059V58.6825H53.3413V56.0179Z" fill="black"/>
<path d="M61.3352 73.3381H63.9999V76.0028H61.3352V73.3381Z" fill="black"/>
<path d="M16.0361 34.7006H18.7007V37.3653H16.0361V34.7006Z" fill="black"/>
<path d="M5.37744 34.821L8.04209 34.5809C8.03559 34.5172 7.50929 28.1762 11.0197 24.3217C13.0338 22.2764 15.835 21.2023 18.7007 21.3773V18.7127C15.0817 18.5214 11.5583 19.9142 9.04785 22.5288C4.74705 27.2401 5.35467 34.5146 5.37744 34.821Z" fill="black"/>
<path d="M53.3413 18.7127V21.3773C54.0074 21.3773 69.5361 21.6616 72.0088 40.2062L74.6494 39.8543C71.8605 18.9553 53.5267 18.7127 53.3413 18.7127Z" fill="black"/>
</g>
<defs>
<clipPath id="clip0">
<rect width="80" height="80" fill="white"/>
</clipPath>
</defs>
</svg>
