<svg width="80" height="80" viewBox="0 0 80 80" fill="none" xmlns="http://www.w3.org/2000/svg">
<path d="M73.3333 10.6667V4C73.3333 3.26367 72.7363 2.66667 72 2.66667H58.6667C57.9303 2.66667 57.3333 3.26367 57.3333 4V10.6667H54.6667C54.255 10.6663 53.8662 10.8563 53.6133 11.1813L44.28 23.1813C44.0983 23.4155 43.9997 23.7035 44 24V29.3333H36V24C36 23.6923 35.8935 23.3942 35.6987 23.156L24 8.85733V1.33333C24 0.597 23.403 0 22.6667 0H13.3333C12.597 0 12 0.597 12 1.33333V8.85733L0.301333 23.156C0.1065 23.3942 0 23.6923 0 24V73.3333C0.00433333 77.0133 2.98667 79.9957 6.66667 80H73.3333C77.0133 79.9957 79.9957 77.0133 80 73.3333V17.3333C79.9957 13.6533 77.0133 10.671 73.3333 10.6667ZM60 5.33333H70.6667V10.6667H60V5.33333ZM36 37.3333V32H38.6667V37.3333H41.3333V32H44V37.3333H46.6667V32H49.3333V40H30.6667V32H33.3333V37.3333H36ZM14.6667 2.66667H21.3333V8H14.6667V2.66667ZM2.66667 24.476L13.9653 10.6667H22.0347L33.3333 24.476V29.3333H29.3333C28.597 29.3333 28 29.9303 28 30.6667V32H2.66667V24.476ZM25.3333 77.3333H6.66667C4.4575 77.3333 2.66667 75.5425 2.66667 73.3333V70.6667H25.3333V77.3333ZM25.3333 41.3333V68H2.66667V65.3333H16V62.6667H2.66667V34.6667H28V40H26.6667C25.9303 40 25.3333 40.597 25.3333 41.3333ZM52 77.3333H28V42.6667H52V77.3333ZM77.3333 73.3333C77.3333 75.5425 75.5425 77.3333 73.3333 77.3333H54.6667V70.6667H77.3333V73.3333ZM77.3333 68H54.6667V65.3333H69.3333V62.6667H54.6667V41.3333C54.6667 40.597 54.0697 40 53.3333 40H52V30.6667C52 29.9303 51.403 29.3333 50.6667 29.3333H46.6667V25.3333H77.3333V68ZM77.3333 22.6667H48.06L55.3187 13.3333H73.3333C75.5425 13.3333 77.3333 15.1242 77.3333 17.3333V22.6667Z" fill="black"/>
<path d="M40 49.3333C34.8453 49.3333 30.6667 53.512 30.6667 58.6667C30.6667 63.8213 34.8453 68 40 68C45.1547 68 49.3333 63.8213 49.3333 58.6667C49.3275 53.5145 45.1522 49.3392 40 49.3333ZM40 65.3333C37.3485 65.3305 34.9507 63.7568 33.8933 61.3253L35.9427 59.276C37.0795 58.1412 38.9205 58.1412 40.0573 59.276C41.7415 60.9497 44.302 61.3705 46.4333 60.324C45.679 63.2633 43.0347 65.3223 40 65.3333ZM46.0573 57.3907C44.9058 58.4895 43.0942 58.4895 41.9427 57.3907C39.764 55.2163 36.236 55.2163 34.0573 57.3907L33.3907 58.0573C33.698 54.6338 36.5628 52.0083 40 52C43.0363 52.0108 45.6817 54.0718 46.4347 57.0133L46.0573 57.3907Z" fill="black"/>
<path d="M21.3333 62.6667H18.6667V65.3333H21.3333V62.6667Z" fill="black"/>
<path d="M74.6667 62.6667H72V65.3333H74.6667V62.6667Z" fill="black"/>
<path d="M72 29.3333H62.6667C61.9303 29.3333 61.3333 29.9303 61.3333 30.6667V40C61.3333 40.7363 61.9303 41.3333 62.6667 41.3333H72C72.7363 41.3333 73.3333 40.7363 73.3333 40V30.6667C73.3333 29.9303 72.7363 29.3333 72 29.3333ZM70.6667 38.6667H64V32H70.6667V38.6667Z" fill="black"/>
</svg>
